<?xml version="1.0" standalone="no"?>
<!DOCTYPE svg PUBLIC "-//W3C//DTD SVG 20010904//EN"
 "http://www.w3.org/TR/2001/REC-SVG-20010904/DTD/svg10.dtd">
<svg version="1.0" xmlns="http://www.w3.org/2000/svg"
 width="4994.000000pt" height="776.000000pt" viewBox="0 0 4994.000000 776.000000"
 preserveAspectRatio="xMidYMid meet">

<g transform="translate(0.000000,776.000000) scale(0.100000,-0.100000)"
fill="#000000" stroke="none">
<path d="M47965 7574 c-221 -29 -421 -90 -595 -180 -133 -69 -217 -132 -316
-237 -161 -171 -237 -353 -251 -602 -21 -386 187 -685 620 -890 211 -99 444
-173 982 -310 143 -36 330 -87 415 -112 514 -152 771 -322 861 -571 21 -58 24
-84 23 -187 -1 -100 -5 -133 -26 -197 -85 -256 -286 -436 -601 -537 -167 -53
-258 -65 -492 -65 -218 0 -301 9 -480 55 -406 104 -759 340 -956 641 -33 51
-64 94 -67 96 -8 3 -293 -75 -300 -83 -9 -8 88 -167 153 -250 240 -308 626
-529 1077 -619 538 -107 1090 -21 1470 230 99 65 233 202 292 297 177 285 191
665 34 931 -51 87 -160 202 -263 279 -44 32 -147 92 -230 133 -224 110 -424
174 -1010 324 -497 128 -719 202 -902 302 -265 146 -393 327 -393 558 1 329
223 603 590 730 156 53 266 71 467 77 274 8 442 -16 684 -97 375 -125 664
-351 874 -684 9 -14 26 -11 160 26 83 23 152 43 154 44 7 6 -91 169 -146 241
-82 108 -238 252 -365 336 -258 172 -549 277 -891 322 -144 18 -432 18 -572
-1z"/>
<path d="M8240 7555 c0 -18 -5 -25 -20 -25 -20 0 -20 -7 -20 -1990 l0 -1990
80 0 80 0 2 1810 3 1810 1069 -1795 c588 -988 1074 -1802 1080 -1811 9 -12 41
-14 193 -12 l181 3 -414 695 c-228 382 -413 702 -411 710 2 8 339 511 748
1118 l744 1103 3 -1815 2 -1816 155 0 155 0 0 1990 0 1990 -94 0 c-66 0 -96 4
-100 13 -5 10 -7 10 -12 0 -3 -7 -20 -13 -38 -13 -32 0 -45 -19 -846 -1205
-447 -663 -816 -1205 -819 -1205 -3 1 -328 542 -722 1203 l-716 1202 -122 3
c-119 3 -122 3 -133 27 -14 32 -28 32 -28 0z"/>
<path d="M1910 7541 c0 -5 -12 -11 -27 -13 -26 -3 -74 -103 -955 -1988 l-927
-1985 156 -3 c86 -1 160 1 164 5 8 9 363 832 1102 2555 271 631 494 1148 497
1148 4 0 1535 -3561 1577 -3667 l16 -43 163 0 163 0 -33 78 c-245 570 -1661
3863 -1669 3880 -10 21 -16 22 -109 22 -59 0 -98 4 -98 10 0 6 -4 10 -10 10
-5 0 -10 -4 -10 -9z"/>
<path d="M14710 7542 c0 -7 -11 -12 -24 -12 -13 0 -28 -6 -33 -12 -8 -11
-1833 -3913 -1850 -3955 -4 -10 31 -13 155 -13 l160 0 132 308 c73 169 235
543 359 832 125 289 425 985 666 1548 241 562 442 1019 446 1015 6 -7 1528
-3547 1576 -3665 l15 -38 159 0 c87 0 159 3 159 8 0 11 -1692 3945 -1703 3960
-6 8 -40 12 -101 12 -58 0 -96 4 -104 12 -9 9 -12 9 -12 0z"/>
<path d="M33890 7542 c0 -7 -11 -12 -24 -12 -13 0 -28 -6 -33 -12 -9 -11
-1835 -3915 -1850 -3955 -4 -10 27 -13 155 -13 l159 0 21 48 c11 26 238 553
505 1172 266 619 616 1432 778 1808 161 375 296 679 300 675 6 -7 619 -1432
1332 -3095 l260 -608 159 0 c87 0 158 3 158 7 0 11 -1692 3946 -1703 3961 -6
8 -40 12 -101 12 -58 0 -96 4 -104 12 -9 9 -12 9 -12 0z"/>
<path d="M44190 7540 c0 -5 -11 -10 -25 -10 -19 0 -30 -10 -46 -42 -19 -38
-1822 -3893 -1836 -3925 -4 -10 31 -13 155 -13 l159 0 26 58 c44 99 497 1148
1045 2424 290 675 530 1224 534 1220 7 -7 1512 -3506 1565 -3639 l25 -63 163
0 163 0 -319 743 c-176 408 -561 1303 -856 1990 l-536 1247 -99 0 c-59 0 -98
4 -98 10 0 6 -4 10 -10 10 -5 0 -10 -4 -10 -10z"/>
<path d="M3734 7517 c-3 -8 -4 -45 -2 -83 l3 -69 808 -3 807 -2 0 -1905 0
-1905 160 0 160 0 0 1905 0 1905 805 0 805 0 0 85 0 85 -1770 0 c-1477 0
-1771 -2 -1776 -13z"/>
<path d="M19564 7517 c-3 -8 -4 -45 -2 -83 l3 -69 808 -3 807 -2 0 -1905 0
-1905 155 0 155 0 0 1905 0 1905 810 0 810 0 0 85 0 85 -1770 0 c-1477 0
-1771 -2 -1776 -13z"/>
<path d="M24027 7523 c-4 -3 -7 -899 -7 -1990 l0 -1983 1250 0 1250 0 0 80 0
80 -1095 0 -1095 0 0 965 0 965 1095 0 1095 0 0 80 0 80 -1095 0 -1095 0 0
780 0 780 1095 0 1095 0 0 85 0 85 -1243 0 c-684 0 -1247 -3 -1250 -7z"/>
<path d="M27567 7524 c-4 -4 -7 -900 -7 -1991 l0 -1983 155 0 155 0 0 308 c0
352 10 445 65 610 124 371 418 656 809 787 157 53 278 68 480 62 241 -8 372
-39 581 -141 154 -76 269 -160 421 -311 236 -235 379 -442 701 -1020 l161
-290 181 -3 c100 -1 181 0 181 3 0 5 -188 331 -352 608 -374 634 -710 986
-1115 1167 l-82 37 80 23 c111 32 281 118 377 190 194 146 335 357 399 597 23
86 26 118 26 253 0 135 -3 168 -26 252 -50 187 -144 354 -276 486 -174 175
-386 280 -681 338 -75 15 -205 18 -1155 21 -589 2 -1074 1 -1078 -3z m2222
-192 c165 -44 325 -135 428 -245 252 -267 321 -687 174 -1056 -84 -210 -267
-392 -476 -472 -144 -56 -182 -60 -565 -69 -435 -10 -584 -31 -815 -117 -223
-83 -407 -204 -577 -381 l-88 -91 0 1230 0 1230 918 -4 c912 -3 917 -3 1001
-25z"/>
<path d="M36747 7524 c-4 -4 -7 -900 -7 -1991 l0 -1983 155 0 155 0 0 719 0
720 923 4 c896 3 925 4 1015 24 268 61 448 157 617 328 424 428 487 1150 145
1661 -64 95 -211 244 -299 304 -139 93 -311 162 -491 196 -87 17 -184 19
-1150 22 -581 1 -1059 0 -1063 -4z m2216 -197 c162 -50 294 -132 395 -242 395
-432 387 -1254 -16 -1668 -109 -112 -214 -176 -369 -224 l-88 -28 -917 -3
-918 -3 0 1101 0 1101 913 -3 912 -3 88 -28z"/>
<path d="M41047 7523 c-4 -3 -7 -899 -7 -1990 l0 -1983 155 0 155 0 0 1990 0
1990 -148 0 c-82 0 -152 -3 -155 -7z"/>
<path d="M30852 1680 c-78 -104 -142 -194 -142 -200 0 -6 39 -10 98 -10 l98 0
157 194 c86 107 157 197 157 200 0 4 -51 6 -113 6 l-112 0 -143 -190z"/>
<path d="M39486 1442 c-12 -26 -26 -42 -36 -42 -13 0 -91 -163 -324 -675 -168
-371 -306 -679 -306 -685 0 -7 34 -10 97 -8 l98 3 92 205 c58 129 98 206 108
208 35 8 156 -21 299 -70 122 -41 167 -52 243 -57 l94 -6 57 -130 c31 -72 61
-136 65 -142 12 -18 237 -18 237 0 0 6 -132 315 -292 684 l-293 673 -42 0
c-40 0 -43 2 -60 42 l-19 41 -18 -41z m149 -622 c70 -162 130 -301 133 -309 8
-21 -63 -6 -228 50 -80 27 -170 52 -200 57 -31 5 -54 13 -53 19 2 9 81 190
190 432 13 29 25 52 27 50 2 -2 61 -137 131 -299z"/>
<path d="M14292 1436 c-8 -22 -21 -36 -33 -38 -16 -2 -79 -132 -320 -663 -165
-363 -302 -670 -305 -683 -6 -23 -6 -23 92 -20 l98 3 91 205 c63 141 97 206
109 208 35 7 155 -21 300 -70 121 -41 165 -51 242 -55 l93 -6 62 -143 63 -144
118 0 c88 0 118 3 118 13 0 6 -132 313 -293 682 l-292 670 -43 3 c-39 3 -45 7
-58 38 -18 43 -27 43 -42 0z m279 -915 c9 -23 9 -24 -33 -17 -24 4 -102 27
-174 52 -72 25 -162 51 -200 58 -50 9 -68 17 -66 27 4 15 175 406 199 453 15
29 16 27 140 -260 69 -159 129 -300 134 -313z"/>
<path d="M19566 1435 c-9 -21 -22 -35 -33 -35 -14 0 -84 -146 -320 -668 -166
-367 -305 -675 -308 -685 -7 -15 2 -17 93 -17 l100 0 93 211 94 211 60 -7 c78
-8 154 -28 233 -60 90 -37 217 -65 292 -65 l65 0 61 -143 61 -142 122 -3 c66
-1 121 0 121 4 0 5 -538 1243 -581 1337 -10 23 -18 27 -55 27 -40 0 -43 2 -54
35 -6 19 -16 35 -21 35 -5 0 -15 -16 -23 -35z m158 -628 c71 -164 126 -301
122 -304 -8 -8 -139 27 -263 71 -57 20 -127 39 -158 42 -30 4 -55 11 -55 15 0
20 214 489 220 482 4 -4 64 -142 134 -306z"/>
<path d="M21485 1430 c-116 -21 -197 -63 -269 -139 -74 -80 -91 -126 -91 -251
0 -91 3 -112 25 -155 32 -67 104 -137 179 -174 33 -17 127 -54 208 -81 233
-79 283 -120 283 -235 0 -86 -36 -142 -117 -181 -53 -26 -68 -29 -163 -29 -97
0 -110 2 -172 32 -37 17 -90 53 -118 79 l-50 46 -71 -58 -72 -59 66 -60 c117
-109 260 -165 421 -165 197 0 354 87 428 238 31 63 33 72 33 177 0 98 -3 116
-27 167 -33 71 -96 139 -162 177 -28 16 -125 55 -216 86 -285 99 -324 133
-289 260 25 89 132 149 269 149 109 1 172 -23 241 -94 l56 -57 64 55 c35 30
65 58 67 63 6 15 -114 127 -163 152 -106 53 -252 76 -360 57z"/>
<path d="M27136 1430 c-112 -14 -166 -30 -256 -73 -68 -33 -102 -59 -171 -127
-73 -72 -93 -100 -132 -180 -178 -367 -41 -803 308 -975 96 -47 177 -65 330
-72 215 -9 361 25 500 118 198 133 305 341 305 594 0 234 -85 424 -251 562
-73 60 -198 119 -291 138 -98 19 -254 26 -342 15z m280 -194 c172 -45 314
-191 360 -366 24 -93 22 -236 -6 -325 -69 -221 -238 -350 -475 -362 -334 -17
-564 202 -565 537 0 275 171 482 438 530 59 11 181 4 248 -14z"/>
<path d="M32275 1430 c-118 -21 -200 -64 -273 -145 -67 -72 -92 -140 -92 -245
0 -111 27 -178 99 -250 67 -66 129 -97 319 -161 228 -77 282 -120 282 -228 0
-135 -107 -221 -274 -221 -119 1 -206 34 -292 113 l-54 49 -71 -58 -71 -58 63
-61 c77 -73 162 -119 265 -145 200 -51 406 -2 522 125 72 79 96 144 96 270 1
121 -22 189 -88 262 -63 69 -129 104 -316 168 -168 58 -247 94 -276 126 -9 10
-19 38 -21 62 -10 86 48 167 143 201 144 50 301 15 387 -86 l40 -48 61 52 c33
29 65 55 70 59 14 12 -65 100 -128 141 -105 68 -268 100 -391 78z"/>
<path d="M37389 1430 c-187 -22 -306 -78 -430 -200 -73 -72 -93 -100 -132
-180 -62 -126 -81 -226 -74 -374 13 -288 178 -524 435 -625 131 -52 396 -65
537 -26 127 35 254 114 319 200 27 35 28 37 9 57 -10 11 -39 38 -65 59 l-47
40 -47 -52 c-88 -94 -193 -137 -349 -146 -271 -15 -481 133 -545 383 -82 320
91 615 400 680 173 37 367 -15 475 -125 21 -23 42 -41 46 -41 4 0 32 30 64 66
l58 65 -34 35 c-139 145 -370 213 -620 184z"/>
<path d="M41425 1433 c-142 -19 -270 -92 -334 -191 -93 -145 -72 -343 49 -456
68 -63 118 -89 300 -151 179 -61 247 -99 279 -156 41 -73 17 -177 -54 -236
-56 -47 -131 -66 -228 -61 -112 7 -183 36 -257 105 -68 63 -61 64 -154 -19
l-48 -43 68 -65 c114 -107 250 -160 414 -160 145 0 266 45 350 130 125 124
153 323 68 483 -58 109 -125 151 -388 242 -231 80 -270 107 -270 191 0 107 69
176 204 204 118 24 260 -19 325 -100 17 -22 37 -40 44 -40 7 0 41 26 76 58
l63 57 -74 71 c-56 53 -91 77 -141 97 -94 38 -200 52 -292 40z"/>
<path d="M8012 1313 l3 -88 202 -3 203 -2 2 -593 3 -592 113 -3 112 -3 0 595
0 596 208 2 207 3 3 88 3 87 -531 0 -531 0 3 -87z"/>
<path d="M9952 718 l3 -683 480 0 480 0 3 88 3 87 -371 0 -370 0 0 200 0 200
335 0 335 0 0 85 0 85 -335 0 -335 0 0 220 0 220 355 0 355 0 0 90 0 90 -470
0 -470 0 2 -682z"/>
<path d="M11840 715 l0 -686 113 3 112 3 3 253 2 253 127 -3 127 -3 157 -250
157 -250 106 -3 c58 -1 106 -1 106 2 0 3 -74 123 -165 267 l-165 263 34 11
c201 69 306 289 250 525 -28 119 -94 202 -200 251 -91 42 -160 49 -476 49
l-288 0 0 -685z m645 475 c72 -38 100 -96 100 -210 0 -73 -4 -93 -28 -142 -24
-50 -35 -61 -85 -85 -54 -26 -65 -28 -229 -32 l-173 -3 0 252 0 252 183 -4
c173 -3 185 -4 232 -28z"/>
<path d="M15890 716 l0 -687 113 3 112 3 3 251 2 251 193 6 c216 8 264 15 342
53 148 73 226 229 212 422 -11 147 -65 249 -167 310 -105 63 -122 65 -482 70
l-328 4 0 -686z m625 483 c93 -35 132 -114 123 -250 -8 -104 -38 -156 -113
-194 -58 -29 -64 -30 -232 -34 l-173 -3 0 251 0 251 170 0 c147 0 177 -3 225
-21z"/>
<path d="M17810 715 l0 -686 113 3 112 3 3 683 2 682 -115 0 -115 0 0 -685z"/>
<path d="M24412 718 l3 -683 90 0 90 0 3 319 2 319 50 -6 c27 -3 116 -28 197
-56 173 -58 292 -78 395 -64 l68 10 2 -261 3 -261 113 -3 112 -3 0 686 0 685
-115 0 -115 0 0 -330 c0 -181 -3 -330 -7 -330 -5 0 -36 -5 -70 -10 -87 -14
-177 1 -351 59 -81 27 -169 53 -197 56 -94 12 -85 -18 -85 286 l0 269 -95 0
-95 0 2 -682z"/>
<path d="M28980 715 l0 -685 433 2 432 3 3 88 3 87 -321 0 -320 0 0 595 0 595
-115 0 -115 0 0 -685z"/>
<path d="M30732 718 l3 -683 113 -3 112 -3 0 686 0 685 -115 0 -115 0 2 -682z"/>
<path d="M33622 1313 l3 -88 208 -3 207 -2 0 -596 0 -595 113 3 112 3 3 592 2
593 203 2 202 3 3 88 3 87 -531 0 -531 0 3 -87z"/>
<path d="M35562 718 l3 -683 113 -3 112 -3 0 686 0 685 -115 0 -115 0 2 -682z"/>
</g>
</svg>
