<?xml version="1.0" standalone="no"?>
<!DOCTYPE svg PUBLIC "-//W3C//DTD SVG 20010904//EN"
 "http://www.w3.org/TR/2001/REC-SVG-20010904/DTD/svg10.dtd">
<svg version="1.0" xmlns="http://www.w3.org/2000/svg"
 width="1398.000000pt" height="1400.000000pt" viewBox="0 0 1398.000000 1400.000000"
 preserveAspectRatio="xMidYMid meet">

<g transform="translate(0.000000,1400.000000) scale(0.100000,-0.100000)"
fill="#000000" stroke="none">
<path d="M6883 13988 c-6 -7 -15 -46 -22 -87 -35 -220 -177 -364 -531 -537
-504 -246 -575 -291 -784 -494 -177 -172 -302 -342 -409 -555 -65 -131 -118
-269 -147 -385 -11 -47 -23 -90 -25 -97 -2 -7 -39 8 -100 42 -410 226 -923
300 -1385 199 -104 -23 -236 -65 -570 -182 -332 -117 -551 -109 -730 26 -48
37 -56 40 -74 29 -30 -21 -43 -45 -31 -61 6 -7 27 -35 47 -62 77 -100 109
-248 90 -407 -16 -124 -38 -206 -122 -442 -121 -338 -153 -468 -171 -695 -27
-337 46 -717 202 -1038 32 -67 59 -125 60 -129 0 -4 -30 -16 -67 -26 -328 -92
-682 -317 -927 -592 -159 -178 -256 -342 -456 -770 -139 -296 -309 -464 -501
-496 -36 -6 -75 -13 -87 -15 -27 -5 -39 -43 -23 -73 8 -16 20 -21 48 -21 99 0
223 -56 318 -143 111 -102 174 -201 309 -488 169 -358 275 -519 470 -714 263
-263 594 -453 935 -536 52 -13 96 -24 98 -25 1 -1 -23 -41 -54 -90 -159 -252
-258 -525 -300 -821 -20 -147 -15 -472 9 -603 27 -140 81 -324 157 -529 97
-264 123 -374 123 -521 0 -93 -4 -128 -22 -180 -24 -69 -68 -145 -101 -175
-25 -23 -25 -47 -2 -68 27 -24 50 -21 89 13 116 102 311 135 534 90 55 -11
206 -58 337 -104 393 -139 503 -164 762 -173 367 -12 672 54 998 217 89 45
155 73 157 66 2 -6 16 -56 30 -111 118 -444 420 -868 801 -1124 133 -90 233
-144 476 -257 231 -108 368 -195 458 -290 79 -85 130 -187 137 -276 6 -69 24
-98 58 -98 32 0 41 16 54 99 23 144 104 267 249 376 65 49 161 102 377 209
296 146 408 209 518 293 86 66 267 243 340 333 176 218 324 508 387 760 11 47
23 91 25 98 3 9 20 4 57 -19 283 -167 661 -268 1006 -269 273 0 505 49 880
189 214 80 341 112 472 118 162 8 265 -22 374 -109 44 -34 51 -37 69 -25 31
21 44 45 32 61 -6 7 -27 35 -47 62 -97 129 -119 308 -66 539 11 50 58 197 104
328 47 131 96 281 110 335 116 444 62 951 -146 1377 -32 66 -84 160 -115 208
-32 48 -56 89 -54 90 2 1 47 13 99 26 492 121 952 462 1220 906 29 48 94 175
146 283 52 108 110 229 130 267 134 259 291 396 484 426 84 13 100 22 100 54
0 33 -31 55 -79 55 -96 0 -233 69 -327 166 -84 85 -154 202 -291 484 -193 395
-269 508 -490 720 -253 244 -543 408 -889 505 -6 2 17 59 51 128 74 149 134
325 172 502 26 123 27 144 27 390 1 234 -2 271 -22 365 -34 157 -75 293 -147
486 -77 209 -111 329 -125 451 -19 157 12 296 88 397 20 27 41 55 47 62 12 16
-1 41 -32 61 -18 12 -25 10 -64 -22 -93 -78 -205 -115 -352 -115 -129 0 -259
30 -511 120 -400 141 -518 168 -781 177 -386 12 -729 -68 -1060 -250 -38 -21
-74 -39 -79 -40 -4 -1 -21 45 -36 103 -123 464 -423 883 -825 1152 -106 71
-219 130 -582 304 -281 135 -454 322 -470 505 -3 36 -12 72 -21 82 -18 20 -55
23 -69 5z m165 -441 c113 -116 203 -169 642 -380 107 -51 233 -120 280 -152
353 -240 621 -596 754 -1000 73 -221 101 -420 93 -669 -4 -152 -28 -352 -46
-382 -4 -7 -57 11 -151 52 -273 118 -619 223 -920 278 -279 51 -400 61 -770
61 -370 0 -492 -10 -770 -61 -139 -26 -358 -78 -467 -112 l-62 -20 -78 107
c-118 161 -311 354 -468 467 l-29 22 13 68 c19 108 96 326 157 448 149 298
378 561 643 737 102 68 140 88 511 267 260 125 411 245 501 395 l32 55 34 -56
c19 -32 64 -88 101 -125z m3132 -1528 c177 -22 255 -43 653 -183 252 -88 356
-109 512 -103 66 3 142 12 168 20 45 14 48 14 42 -1 -16 -40 -35 -152 -35
-207 0 -145 36 -291 155 -620 138 -382 160 -503 152 -830 -4 -172 -10 -232
-31 -330 -82 -389 -261 -721 -536 -995 -88 -87 -277 -240 -297 -240 -4 0 -26
46 -47 103 -348 911 -1044 1710 -1911 2193 -77 43 -141 78 -142 78 -1 1 7 42
17 91 40 196 51 426 29 625 -13 120 -27 102 151 194 206 106 398 168 622 200
114 17 384 20 498 5z m-6085 -9 c400 -45 757 -198 1064 -455 106 -89 246 -242
322 -352 44 -64 48 -74 32 -79 -104 -35 -331 -132 -468 -199 -735 -362 -1367
-945 -1787 -1651 l-90 -151 -41 9 c-176 39 -504 50 -697 23 -58 -8 -112 -17
-121 -20 -36 -12 -183 311 -233 510 -100 398 -82 761 56 1150 104 292 147 425
164 501 22 106 23 298 1 379 -9 32 -15 61 -13 63 2 2 31 -4 64 -12 85 -22 233
-20 355 5 98 19 196 51 540 173 158 56 296 89 437 105 108 12 310 12 415 1z
m3361 -809 c782 -107 1456 -395 2079 -890 154 -122 494 -462 616 -616 123
-155 239 -320 329 -470 131 -216 291 -553 351 -740 12 -38 28 -83 35 -100 19
-45 79 -265 107 -390 151 -671 127 -1423 -66 -2065 -19 -63 -40 -128 -45 -145
-6 -16 -25 -70 -43 -120 -144 -407 -393 -842 -696 -1215 -99 -122 -431 -454
-553 -553 -674 -548 -1459 -867 -2303 -936 -165 -14 -510 -14 -674 0 -549 46
-1049 188 -1543 440 -386 196 -698 421 -1014 729 -333 325 -588 673 -800 1090
-92 181 -226 500 -226 537 0 11 -4 23 -9 29 -25 26 -119 400 -156 617 -40 245
-46 307 -52 607 -4 222 -2 323 11 455 81 844 391 1598 933 2265 107 133 446
469 577 573 662 526 1394 828 2211 912 210 21 730 14 931 -14z m-4473 -2147
c59 -8 114 -17 121 -20 11 -4 1 -32 -40 -122 -192 -407 -311 -820 -375 -1297
-21 -150 -23 -211 -23 -525 0 -375 10 -498 65 -795 23 -126 92 -400 120 -484
l20 -56 -23 -15 c-99 -65 -205 -155 -331 -282 -102 -102 -155 -148 -170 -148
-33 0 -201 45 -300 80 -332 117 -631 331 -856 610 -106 132 -166 236 -292 502
-59 125 -129 263 -154 306 -88 149 -216 280 -326 337 l-39 20 52 29 c76 43
192 158 260 260 33 50 92 156 130 236 200 414 238 487 316 590 198 265 432
459 724 600 353 171 724 228 1121 174z m8743 -50 c482 -146 908 -493 1127
-919 20 -38 83 -167 140 -286 57 -119 125 -249 152 -290 57 -89 212 -245 278
-279 26 -14 47 -27 46 -30 0 -3 -32 -25 -71 -50 -143 -92 -238 -222 -390 -538
-157 -327 -170 -352 -232 -447 -270 -412 -699 -710 -1190 -825 l-88 -21 -35
43 c-95 114 -352 342 -449 396 -16 9 -14 20 24 153 69 244 113 468 144 734 21
174 17 754 -5 935 -33 261 -95 560 -161 765 l-26 80 21 15 c180 123 420 354
529 507 36 51 66 92 67 92 1 1 55 -15 119 -35z m-661 -3401 c183 -136 384
-360 510 -568 255 -421 338 -965 219 -1437 -13 -54 -47 -162 -75 -240 -97
-274 -138 -399 -155 -481 -23 -106 -23 -290 -1 -372 9 -32 15 -61 13 -62 -2
-2 -32 4 -67 13 -50 13 -93 15 -194 11 -154 -6 -274 -36 -559 -142 -367 -135
-490 -160 -791 -159 -141 0 -229 5 -300 17 -236 41 -463 119 -649 224 l-99 56
7 56 c24 221 16 445 -25 660 -11 57 -19 104 -17 105 2 2 61 35 132 75 875 491
1565 1292 1916 2224 19 48 36 87 39 87 3 0 47 -30 96 -67z m-8101 -103 c353
-904 1074 -1708 1953 -2181 58 -31 81 -48 78 -59 -3 -8 -14 -69 -25 -135 -28
-156 -36 -396 -21 -548 15 -140 29 -119 -140 -206 -315 -164 -599 -228 -964
-218 -232 7 -351 29 -587 112 -90 31 -219 76 -288 100 -202 70 -254 80 -425
79 -109 0 -163 -5 -198 -17 -45 -14 -48 -14 -42 1 24 61 37 164 31 258 -8 135
-46 279 -149 564 -130 360 -157 493 -157 775 0 242 25 403 96 620 94 287 255
547 474 765 91 90 274 239 295 239 6 1 36 -67 69 -149z m5867 -2555 c19 -193
-1 -450 -50 -643 -90 -351 -259 -650 -511 -902 -179 -179 -334 -283 -618 -415
-334 -154 -419 -204 -537 -316 -42 -40 -97 -105 -123 -144 l-47 -72 -35 60
c-51 87 -185 210 -313 285 -59 35 -185 100 -280 144 -266 123 -374 182 -488
267 -435 324 -717 811 -779 1346 -21 184 -6 484 32 632 l10 42 32 -14 c460
-203 805 -302 1286 -367 145 -20 208 -22 520 -22 375 0 515 11 800 65 320 61
701 183 980 313 l75 35 17 -87 c9 -48 22 -141 29 -207z"/>
<path d="M6675 10124 c-427 -45 -774 -145 -1130 -327 -151 -78 -379 -225 -515
-333 -118 -94 -402 -380 -490 -494 -341 -442 -544 -919 -627 -1475 -25 -171
-25 -639 0 -810 84 -560 302 -1068 643 -1495 87 -110 364 -387 474 -474 427
-341 939 -561 1495 -643 171 -25 639 -25 810 0 556 82 1068 302 1495 643 110
87 387 364 474 474 341 428 560 937 643 1495 25 172 25 640 0 810 -84 562
-301 1065 -643 1495 -87 110 -364 387 -474 474 -358 285 -801 498 -1240 596
-216 48 -344 62 -615 65 -143 2 -278 1 -300 -1z m675 -98 c518 -83 964 -269
1364 -570 628 -473 1028 -1151 1153 -1956 22 -144 26 -642 5 -785 -118 -817
-522 -1512 -1157 -1990 -413 -310 -876 -500 -1410 -577 -121 -18 -629 -18
-750 0 -534 77 -997 267 -1410 577 -623 469 -1027 1152 -1150 1945 -23 143
-31 532 -16 696 108 1146 870 2127 1955 2516 196 70 431 125 656 154 148 18
618 12 760 -10z"/>
<path d="M6675 9209 c-477 -60 -909 -272 -1250 -614 -347 -347 -556 -776 -615
-1265 -13 -109 -13 -371 0 -480 59 -489 268 -918 615 -1265 346 -347 777 -556
1265 -615 109 -13 371 -13 480 0 488 59 919 268 1265 615 347 347 556 776 615
1265 13 109 13 371 0 480 -59 489 -268 918 -615 1265 -347 347 -776 556 -1265
615 -100 12 -395 11 -495 -1z m180 -284 c4 -113 6 -208 4 -210 -2 -2 -49 -8
-104 -15 -126 -14 -283 -51 -382 -90 -42 -16 -78 -28 -80 -26 -17 17 -172 371
-165 378 16 16 205 79 323 108 100 24 200 40 339 53 19 2 40 5 46 5 8 2 14
-59 19 -203z m377 180 c167 -24 448 -105 448 -128 0 -10 -147 -363 -156 -375
-1 -2 -29 6 -61 18 -98 36 -252 69 -385 82 l-128 12 0 209 0 209 93 -7 c50 -3
136 -13 189 -20z m676 -227 c61 -35 151 -91 199 -125 99 -70 286 -231 281
-242 -5 -12 -295 -281 -303 -281 -4 0 -37 28 -75 63 -89 82 -206 166 -313 222
l-87 46 14 32 c95 226 150 347 160 347 6 0 62 -28 124 -62z m-1789 -149 c45
-97 81 -180 81 -185 0 -5 -31 -25 -68 -45 -93 -51 -222 -148 -313 -236 l-76
-73 -156 136 c-87 75 -157 140 -157 144 0 15 186 181 285 255 108 81 306 198
316 187 4 -4 44 -86 88 -183z m969 -124 c227 -17 483 -110 703 -256 126 -84
314 -272 398 -398 198 -298 281 -608 260 -968 -21 -365 -175 -700 -443 -969
-220 -219 -466 -352 -776 -420 -122 -27 -478 -27 -600 0 -310 68 -556 201
-776 420 -321 321 -474 732 -443 1189 25 367 176 695 443 963 265 264 594 417
956 443 103 8 128 7 278 -4z m1467 -287 c113 -149 245 -389 279 -504 6 -20 -8
-26 -187 -88 -107 -36 -197 -66 -201 -66 -3 0 -6 6 -6 14 0 7 -29 71 -65 142
-52 104 -134 229 -216 331 -7 7 37 54 142 152 123 113 155 138 167 129 7 -6
47 -56 87 -110z m-3037 -55 c80 -71 150 -131 155 -134 5 -4 -20 -46 -56 -94
-71 -96 -142 -224 -191 -344 l-31 -77 -195 59 c-107 33 -197 61 -199 63 -17
14 131 328 217 459 61 93 138 195 148 195 3 0 71 -57 152 -127z m3391 -690
c16 -71 35 -164 41 -208 16 -116 23 -377 12 -394 -10 -14 -91 -11 -354 16
l-58 6 0 98 c0 115 -22 293 -50 399 -10 41 -18 76 -16 78 6 5 370 131 383 131
6 1 24 -53 42 -126z m-3743 12 c99 -30 184 -57 190 -59 8 -3 7 -25 -6 -78 -27
-114 -42 -272 -39 -394 l4 -111 -202 -23 c-112 -13 -206 -20 -210 -16 -13 12
-8 353 5 451 12 85 49 261 59 278 7 11 9 10 199 -48z m3559 -705 c72 -6 152
-13 179 -16 l48 -6 -7 -66 c-9 -86 -56 -277 -93 -378 -33 -90 -112 -274 -118
-274 -6 0 -348 191 -357 200 -5 4 2 29 16 56 59 116 117 309 142 466 5 34 8
37 33 33 15 -3 86 -9 157 -15z m-3382 -117 c24 -117 68 -246 124 -366 25 -53
44 -99 42 -101 -12 -10 -329 -197 -342 -202 -34 -13 -166 304 -217 521 -39
166 -42 185 -27 186 6 0 93 11 192 23 99 13 187 24 195 25 12 1 20 -21 33 -86z
m3202 -628 c66 -36 124 -70 129 -75 21 -21 -151 -256 -293 -399 -95 -96 -189
-177 -195 -170 -1 2 -57 77 -124 166 l-121 161 127 129 c70 70 156 169 192
220 l64 92 51 -28 c27 -16 104 -59 170 -96z m-2743 -201 c51 -49 108 -101 126
-115 l32 -25 -121 -172 -121 -173 -47 38 c-102 82 -202 177 -272 259 -86 100
-191 243 -187 256 2 4 81 55 177 112 l173 104 73 -96 c40 -54 115 -138 167
-188z m2182 -330 c65 -85 119 -160 122 -167 4 -12 -105 -85 -226 -151 -125
-67 -412 -174 -441 -164 -11 4 -102 373 -96 391 1 4 43 21 92 38 103 34 285
120 365 173 30 19 58 36 61 36 4 0 59 -70 123 -156z m-1792 45 c98 -50 209
-94 300 -119 39 -11 72 -21 74 -23 4 -3 -74 -398 -79 -403 -8 -8 -203 51 -321
98 -138 55 -361 177 -361 197 0 6 52 85 115 175 l115 164 40 -24 c22 -14 75
-43 117 -65z m1053 -161 c3 -7 24 -99 48 -205 l44 -191 -61 -11 c-144 -26
-342 -35 -493 -23 -82 7 -160 16 -174 20 l-26 7 40 203 40 204 31 -6 c17 -3
101 -8 186 -11 136 -5 224 1 353 24 4 0 10 -5 12 -11z"/>
<path d="M6782 7755 c-35 -8 -100 -32 -145 -54 -144 -70 -248 -173 -318 -317
-164 -336 -22 -741 316 -904 507 -244 1077 203 960 754 -29 138 -121 287 -236
383 -70 57 -198 120 -285 138 -85 18 -208 18 -292 0z"/>
<path d="M4354 13506 c-216 -70 -283 -337 -124 -496 61 -61 119 -85 210 -85
90 0 149 24 207 82 63 63 88 124 88 213 0 89 -24 146 -86 208 -76 76 -200 109
-295 78z"/>
<path d="M9407 13466 c-124 -45 -203 -156 -201 -286 2 -213 223 -356 415 -268
201 92 240 350 74 496 -25 22 -67 48 -92 56 -56 19 -144 20 -196 2z"/>
<path d="M702 9929 c-149 -74 -206 -245 -132 -395 34 -69 80 -112 156 -145 61
-28 178 -23 239 9 47 24 115 93 141 142 29 54 27 200 -4 257 -79 148 -253 206
-400 132z"/>
<path d="M12995 9871 c-177 -46 -276 -222 -220 -392 24 -72 110 -159 179 -182
196 -67 399 77 399 283 0 113 -64 215 -166 264 -56 28 -144 40 -192 27z"/>
<path d="M693 4884 c-147 -54 -229 -238 -174 -386 61 -160 253 -238 403 -165
189 92 232 333 86 479 -58 58 -111 81 -198 84 -50 3 -89 -2 -117 -12z"/>
<path d="M12913 4794 c-57 -21 -128 -86 -161 -148 -23 -43 -27 -63 -26 -131 0
-97 28 -161 99 -223 79 -69 195 -91 298 -56 64 22 139 91 168 156 32 73 32
173 0 246 -29 65 -104 134 -168 156 -57 20 -154 19 -210 0z"/>
<path d="M4280 1287 c-137 -38 -225 -152 -224 -292 0 -112 56 -205 155 -260
48 -27 63 -30 139 -30 70 0 93 4 130 24 61 32 107 76 138 136 36 69 38 187 4
256 -63 128 -215 202 -342 166z"/>
<path d="M9316 1243 c-66 -23 -147 -99 -175 -163 -39 -91 -27 -211 29 -288
136 -188 406 -167 510 40 53 108 37 233 -42 323 -80 91 -211 126 -322 88z"/>
</g>
</svg>
